<svg version="1.1" id="Layer_1" xmlns="http://www.w3.org/2000/svg" xmlns:xlink="http://www.w3.org/1999/xlink" x="0px" y="0px"
	 width="100%" viewBox="0 0 1024 352" enable-background="new 0 0 1024 352" xml:space="preserve">
<path fill="#000000" opacity="1.000000" stroke="none" 
	d="
M193.045685,248.267334 
	C161.296677,240.719391 145.687256,216.283600 143.765900,186.469940 
	C142.946289,173.751801 143.865860,161.146332 148.482315,149.085907 
	C158.122284,123.901657 176.837265,110.191765 203.219742,107.101395 
	C220.033218,105.131905 236.403763,107.663818 251.988052,114.710442 
	C255.609711,116.348015 257.221924,118.415504 257.450256,122.558716 
	C257.897736,130.678162 259.154144,138.750870 259.970856,146.853485 
	C260.204987,149.176346 261.395416,152.561508 257.601929,152.732697 
	C254.085205,152.891388 249.410614,155.605774 247.359482,149.875259 
	C246.070007,146.272705 244.687561,142.703506 243.372192,139.110077 
	C234.383743,114.554764 200.105362,114.397011 186.598114,133.801712 
	C179.370117,144.185532 176.707169,155.909927 175.707947,168.099289 
	C174.333450,184.866821 175.205795,201.460983 183.451447,216.679214 
	C193.046997,234.388885 210.988434,239.220367 229.383133,233.500000 
	C235.677979,231.542419 240.369064,227.214035 243.448624,221.411423 
	C245.628128,217.304718 247.697037,213.074570 249.188843,208.686539 
	C250.578918,204.597748 252.284805,203.163345 256.794556,204.587326 
	C263.868286,206.820908 264.199585,206.861755 262.152008,213.765991 
	C261.300446,216.637329 260.128418,219.436798 259.532318,222.356766 
	C256.838776,235.551239 247.453522,241.973450 235.795715,246.168823 
	C221.905304,251.167648 207.760574,251.278030 193.045685,248.267334 
z"/>
<path fill="#000000" opacity="1.000000" stroke="none" 
	d="
M292.000122,248.386932 
	C272.773560,242.724655 269.304840,216.540939 283.844299,203.275482 
	C293.010529,194.912445 304.586700,192.388336 316.158905,189.838577 
	C317.620270,189.516602 319.087677,189.196533 320.568390,188.992081 
	C331.567078,187.473373 329.477875,187.443954 329.572388,178.229828 
	C329.601135,175.432648 329.099365,172.593613 328.543549,169.833572 
	C326.739258,160.873611 317.680786,156.316132 309.315704,160.055878 
	C307.217926,160.993729 305.767120,162.442276 305.310577,164.797333 
	C304.772644,167.572342 304.245697,170.356110 303.536346,173.089996 
	C301.443359,181.156647 294.603394,184.693161 286.575134,181.940826 
	C279.900269,179.652451 277.493927,172.903870 280.621521,165.393280 
	C282.501648,160.878372 285.803436,157.576431 289.922699,155.268356 
	C306.515411,145.971207 323.958801,145.142349 341.428802,151.878006 
	C351.896667,155.913956 355.955261,165.268051 356.203522,175.955795 
	C356.551575,190.937866 356.297943,205.933411 356.376709,220.922791 
	C356.389771,223.401810 356.818542,225.876434 356.997925,228.357239 
	C357.339111,233.076157 360.002563,235.157806 364.568329,235.076065 
	C367.330841,235.026642 369.379639,235.510315 369.635498,239.006882 
	C369.867737,242.180222 370.223633,244.892715 366.299011,246.177322 
	C361.058929,247.892487 355.805206,249.626526 350.287933,249.791916 
	C343.391052,249.998672 337.509094,247.814468 333.971252,241.289505 
	C333.279053,240.012909 332.846863,238.467850 330.816711,237.560883 
	C320.198273,248.132355 307.475647,252.615555 292.000122,248.386932 
M329.394104,199.696365 
	C324.612244,197.436920 320.422974,200.360413 316.247253,201.611633 
	C305.299713,204.892014 301.299347,211.295761 302.209839,222.600006 
	C302.817291,230.141800 307.454529,234.127579 315.272461,233.827515 
	C323.036865,233.529526 329.589844,227.963562 329.643036,221.456482 
	C329.700226,214.461502 329.592957,207.465195 329.394104,199.696365 
z"/>
<path fill="#000000" opacity="1.000000" stroke="none" 
	d="
M686.481750,159.247711 
	C681.953735,159.647049 679.871887,162.024612 679.231628,165.979156 
	C678.806824,168.603088 678.362488,171.245392 677.629089,173.793777 
	C675.462097,181.323578 668.630432,184.775436 661.202393,182.230804 
	C654.321777,179.873672 651.612305,173.288254 654.484802,165.894592 
	C656.257324,161.332138 659.592712,158.026352 663.662903,155.662292 
	C679.615479,146.396606 696.557190,145.351730 713.751099,151.137421 
	C725.319824,155.030243 729.917603,164.620621 730.210754,176.118530 
	C730.601196,191.434174 730.316772,206.766632 730.370972,222.091705 
	C730.378601,224.244781 730.597168,226.404007 730.832031,228.547913 
	C731.302856,232.845398 733.546814,235.151016 738.079956,235.030396 
	C740.381226,234.969177 743.084290,234.731079 743.178406,238.209549 
	C743.260498,241.248444 744.248230,244.599655 739.930786,246.041733 
	C734.699829,247.788925 729.437378,249.613419 723.954834,249.867706 
	C717.245667,250.178909 711.542358,247.762253 708.015320,241.559494 
	C707.293884,240.290756 706.509155,239.057968 705.783447,237.857849 
	C703.230164,238.469666 701.883911,240.269882 700.216736,241.593140 
	C690.761963,249.097824 680.138916,251.842117 668.341125,249.042145 
	C647.110107,244.003342 644.718262,220.312714 654.576721,207.149307 
	C659.801208,200.173477 667.269409,196.492813 675.229736,193.767868 
	C682.481873,191.285324 689.958069,189.550247 697.580444,188.661194 
	C701.887085,188.158890 704.374878,186.560120 703.689819,181.708893 
	C703.273132,178.758286 703.541199,175.707382 703.082581,172.766891 
	C701.317505,161.448532 698.356812,159.039642 686.481750,159.247711 
M700.795410,198.668304 
	C697.250427,199.592148 693.638489,200.315903 690.172913,201.476822 
	C679.118286,205.179977 674.031616,214.131805 676.721863,224.827682 
	C678.315247,231.162704 683.286377,234.398651 690.373718,233.714294 
	C697.343811,233.041245 703.596619,227.527649 703.667786,221.837646 
	C703.747009,215.507507 703.730103,209.174835 703.641052,202.844864 
	C703.617737,201.189819 704.403687,198.928619 700.795410,198.668304 
z"/>
<path fill="#000000" opacity="1.000000" stroke="none" 
	d="
M298.019043,287.785339 
	C442.446442,287.781952 586.377869,287.778381 730.309326,287.780334 
	C737.361084,287.780426 738.055420,288.572815 737.485962,294.977844 
	C737.304993,297.013428 736.545471,298.079834 734.498352,298.136536 
	C733.333069,298.168793 732.167297,298.200897 731.001709,298.200897 
	C585.404419,298.201782 439.807098,298.199677 294.209778,298.197052 
	C293.043671,298.197021 291.869843,298.098450 290.712891,298.199036 
	C286.686218,298.549103 285.606171,296.529327 285.611176,292.794769 
	C285.616028,289.176392 286.810516,287.514404 290.528625,287.765747 
	C292.849945,287.922668 295.190948,287.789337 298.019043,287.785339 
z"/>
<path fill="#000000" opacity="1.000000" stroke="none" 
	d="
M867.272339,177.353973 
	C858.877991,179.088455 858.878052,179.088440 855.717285,171.851700 
	C851.212585,161.537933 845.758484,158.143250 835.667725,159.372421 
	C830.361633,160.018799 826.346863,163.156006 825.320679,167.457977 
	C824.131897,172.441849 825.955383,176.600937 830.798157,179.771317 
	C835.168640,182.632477 840.193054,183.984970 844.999390,185.844177 
	C848.723572,187.284744 852.493591,188.648865 856.092285,190.363754 
	C868.933167,196.482819 875.131104,206.300629 874.096985,219.796875 
	C873.067139,233.237015 865.757935,242.522232 853.240479,247.118942 
	C836.471558,253.276917 820.114380,249.899002 804.050598,243.777756 
	C801.815369,242.925980 801.274353,241.116898 801.083191,239.026932 
	C800.461609,232.233719 799.868835,225.437439 799.175537,218.651489 
	C798.947632,216.420990 799.691467,214.857376 801.963745,214.859543 
	C805.137634,214.862564 809.025757,211.884155 811.270630,216.549011 
	C813.000610,220.143906 814.268921,223.968216 816.097900,227.506836 
	C820.985046,236.962280 832.765930,241.233170 842.570618,237.289932 
	C850.260193,234.197388 852.140137,224.093658 846.067871,218.276581 
	C843.374756,215.696564 840.055115,214.164658 836.607544,212.830627 
	C830.712036,210.549347 824.694397,208.494904 819.025757,205.733963 
	C805.535583,199.163498 799.671143,188.486313 801.467712,174.700439 
	C803.217651,161.272552 812.187378,151.918045 826.385498,149.013794 
	C838.919189,146.450012 851.215698,147.723953 863.322998,151.672867 
	C866.028931,152.555450 867.453674,153.999161 867.651489,156.943375 
	C868.019287,162.417023 868.687256,167.869873 869.144836,173.338531 
	C869.266357,174.790985 869.451111,176.411530 867.272339,177.353973 
z"/>
<path fill="#000000" opacity="1.000000" stroke="none" 
	d="
M472.784302,148.000000 
	C472.778290,140.175354 472.828430,132.850113 472.751495,125.526215 
	C472.681152,118.828743 471.890045,117.752602 465.359497,116.538147 
	C462.060913,115.924721 459.829956,115.160812 459.879150,111.039703 
	C459.929535,106.821190 462.434235,106.222481 465.624268,105.774292 
	C474.346527,104.548843 483.056213,103.233627 491.768555,101.938217 
	C499.192627,100.834351 500.101471,101.594780 500.107330,109.309349 
	C500.137299,148.762589 500.135651,188.215851 500.170715,227.669067 
	C500.177734,235.579590 500.181244,235.765930 507.906464,237.748184 
	C511.838593,238.757141 512.246887,241.198853 512.005798,244.477066 
	C511.745667,248.013596 509.315338,248.172974 506.672333,248.172592 
	C493.021851,248.170639 479.371368,248.182327 465.720886,248.182404 
	C463.125214,248.182419 460.581573,248.208374 460.658600,244.436218 
	C460.720398,241.408722 460.276428,238.605621 464.563141,237.673874 
	C472.739014,235.896790 472.776337,235.627838 472.783356,227.406418 
	C472.805817,201.104309 472.787628,174.802139 472.784302,148.000000 
z"/>
<path fill="#000000" opacity="1.000000" stroke="none" 
	d="
M430.145050,149.826569 
	C435.471436,147.790985 440.480194,147.365021 445.692810,148.708984 
	C456.714874,151.550751 461.652069,165.061386 454.959534,174.314560 
	C450.459076,180.537018 441.109436,180.943146 435.734253,175.091385 
	C434.730042,173.998123 433.970856,172.675949 433.126587,171.440277 
	C429.722107,166.457413 426.350739,166.048920 422.176758,170.439697 
	C417.478638,175.381836 415.488251,181.611282 415.374451,188.230591 
	C415.136688,202.057083 415.404083,215.891739 415.236450,229.720291 
	C415.184448,234.011703 416.797333,236.318634 421.052277,236.835159 
	C422.535431,237.015198 423.986053,237.606781 425.463989,237.659271 
	C429.889526,237.816452 430.340820,240.575455 430.275208,244.145889 
	C430.202026,248.126343 427.641632,248.163300 424.828156,248.161835 
	C410.164398,248.154236 395.500641,248.148727 380.836884,248.169022 
	C378.119507,248.172791 375.842651,247.910889 375.785461,244.295044 
	C375.734985,241.103439 375.734680,238.541321 379.892120,237.669083 
	C387.981354,235.971985 387.992493,235.741821 388.000824,227.374390 
	C388.018921,209.211563 388.019073,191.048569 387.960175,172.885864 
	C387.937347,165.840988 387.617310,165.488312 380.624786,164.144424 
	C377.558716,163.555161 375.519867,162.637985 375.575287,158.782349 
	C375.627991,155.117752 377.071594,153.923660 380.481964,153.435028 
	C389.374512,152.160904 398.239410,150.657288 407.068939,148.998184 
	C410.534088,148.347076 411.624542,150.069031 412.046783,152.860886 
	C412.642365,156.798843 413.123352,160.754166 413.797546,165.776016 
	C418.320923,158.904968 422.685516,152.955292 430.145050,149.826569 
z"/>
<path fill="#000000" opacity="1.000000" stroke="none" 
	d="
M599.590881,125.284515 
	C603.677002,122.526344 607.889343,123.865311 611.938965,123.956871 
	C614.442139,124.013466 614.311646,126.336876 614.323914,128.161194 
	C614.363159,133.992493 614.574036,139.835541 614.279419,145.651794 
	C614.072144,149.743820 615.710022,150.905807 619.530090,150.724319 
	C624.517090,150.487381 629.530823,150.836929 634.520752,150.633728 
	C639.116577,150.446564 639.180847,153.329483 638.979919,156.537994 
	C638.783813,159.670441 639.984924,163.620209 634.449219,163.434402 
	C629.124084,163.255661 623.785645,163.510025 618.456299,163.407303 
	C615.500732,163.350342 614.295105,164.456192 614.312378,167.505508 
	C614.411377,184.999664 614.194946,202.497391 614.462524,219.988129 
	C614.631165,231.015640 621.176270,235.172409 632.630920,231.426666 
	C637.041199,229.984467 638.688782,231.023331 640.385681,235.070557 
	C641.900208,238.682602 641.272095,240.515747 638.003235,242.262802 
	C628.649719,247.261856 619.235107,251.780106 608.123779,249.709305 
	C596.239990,247.494507 589.197754,239.821884 587.681824,227.755142 
	C586.575500,218.948273 586.982422,210.126801 586.939697,201.307495 
	C586.887268,190.477707 586.807068,179.645111 587.004211,168.818573 
	C587.077820,164.778183 585.831726,163.000900 581.590881,163.284668 
	C579.177551,163.446152 575.808105,164.285568 575.711487,159.996826 
	C575.635193,156.607849 574.670776,152.923386 579.659851,151.691269 
	C589.809570,149.184708 594.299133,141.470322 596.998230,132.208344 
	C597.647949,129.978638 598.572571,127.829048 599.590881,125.284515 
z"/>
<path fill="#000000" opacity="1.000000" stroke="none" 
	d="
M556.641357,149.093643 
	C558.661255,151.352585 558.113831,153.776688 558.118835,156.055161 
	C558.172058,180.217377 558.299927,204.380875 558.084595,228.541138 
	C558.035828,234.014099 559.729553,237.175674 565.312378,237.748306 
	C570.004089,238.229568 569.377502,241.674622 569.330505,244.838684 
	C569.277588,248.396469 566.645752,248.125275 564.348816,248.131927 
	C550.684753,248.171509 537.020447,248.163040 523.356262,248.138855 
	C521.179382,248.134995 518.717041,248.267700 518.698853,245.071518 
	C518.682617,242.220139 517.714478,239.111511 521.948608,237.802887 
	C530.729309,235.089066 530.691284,234.928772 530.696289,225.772537 
	C530.705444,208.775543 530.712646,191.778534 530.694824,174.781555 
	C530.685730,166.118011 530.384827,165.518860 522.035889,163.775192 
	C518.642090,163.066422 517.750854,161.466370 517.786804,158.308197 
	C517.822510,155.166031 519.116577,153.897293 522.175415,153.538803 
	C533.557861,152.204803 544.718689,149.239227 556.641357,149.093643 
z"/>
<path fill="#000000" opacity="1.000000" stroke="none" 
	d="
M786.242432,139.946030 
	C781.924072,152.084915 773.049316,159.287201 762.390564,164.800766 
	C758.011963,167.065735 757.464355,163.115692 755.838928,160.932465 
	C754.101746,158.599152 754.377136,156.813354 757.137878,155.310104 
	C761.543030,152.911530 765.653198,150.059448 768.778320,146.018280 
	C771.260742,142.808289 773.149353,139.372360 773.034546,135.229324 
	C771.724121,133.722702 770.127319,134.379929 768.713196,134.362885 
	C759.730957,134.254623 753.571228,128.113632 754.072449,119.687187 
	C754.634399,110.238602 762.232361,103.861313 771.317322,105.212669 
	C781.184937,106.680435 787.431763,114.278564 788.146667,125.765579 
	C788.439453,130.469284 787.738159,135.064026 786.242432,139.946030 
z"/>
<path fill="#000000" opacity="1.000000" stroke="none" 
	d="
M554.912537,128.908630 
	C547.369324,134.595612 538.406311,134.640137 532.726929,129.281128 
	C527.117920,123.988487 526.231995,115.079239 530.687439,108.770889 
	C535.799377,101.533058 545.954712,99.958015 553.274902,105.267639 
	C560.570679,110.559547 561.396545,120.691727 554.912537,128.908630 
z"/>
</svg>